<?xml version="1.0" encoding="UTF-8" standalone="no"?>
<!-- Created with Inkscape (http://www.inkscape.org/) -->

<svg
   version="1.1"
   id="svg1"
   width="1024"
   height="1024"
   viewBox="0 0 1024 1024"
   sodipodi:docname="logo"
   inkscape:version="1.4.2 (ebf0e940d0, 2025-05-08)"
   xmlns:inkscape="http://www.inkscape.org/namespaces/inkscape"
   xmlns:sodipodi="http://sodipodi.sourceforge.net/DTD/sodipodi-0.dtd"
   xmlns="http://www.w3.org/2000/svg"
   xmlns:svg="http://www.w3.org/2000/svg">
  <defs
     id="defs1" />
  <sodipodi:namedview
     id="namedview1"
     pagecolor="#ffffff"
     bordercolor="#000000"
     borderopacity="0.25"
     inkscape:showpageshadow="2"
     inkscape:pageopacity="0.0"
     inkscape:pagecheckerboard="0"
     inkscape:deskcolor="#d1d1d1"
     inkscape:zoom="1.1289062"
     inkscape:cx="512"
     inkscape:cy="512"
     inkscape:window-width="2256"
     inkscape:window-height="1430"
     inkscape:window-x="0"
     inkscape:window-y="0"
     inkscape:window-maximized="1"
     inkscape:current-layer="svg1" />
  <path
     style="fill:#136ed7"
     d="m 707,425.63492 c 0,-0.31848 2.4346,-1.28681 5.41023,-2.15185 6.55359,-1.90518 6.63841,-2.09976 6.21941,-14.26816 -0.38125,-11.07223 -1.89239,-15.57533 -6.53873,-19.48496 -5.77004,-4.85517 -5.29978,-4.83337 -97.59091,-4.52276 -87,0.29281 -87,0.29281 -87.27412,17.66128 -0.1973,12.50092 0.066,17.77831 0.93956,18.83088 1.04668,1.26117 0.6716,1.34807 -2.72587,0.63153 -5.13071,-1.0821 -23.94675,-1.07123 -28.43957,0.0164 -3.05479,0.73953 -3.27426,0.67534 -1.72533,-0.50462 1.60004,-1.2189 1.74764,-3.07341 1.5,-18.8473 C 496.5,385.5 496.5,385.5 407.91744,385.24463 c -100.09944,-0.28858 -94.51188,-0.74969 -99.56553,8.21659 -4.60041,8.16214 -4.27759,27.58912 0.49017,29.49723 2.55855,1.02396 2.56446,1.04362 0.15792,0.52579 -10.39996,-2.23778 -14.54424,-2.64698 -22,-2.17225 -4.675,0.29767 -9.4,0.86548 -10.5,1.2618 -1.64334,0.59207 -1.77709,0.48033 -0.75,-0.62661 0.86894,-0.93649 1.25,-5.37452 1.25,-14.55809 0,-19.84855 3.2963,-28.64736 14.86552,-39.68048 C 304.43766,355.71904 296.35797,356.57028 403,356 c 93.5,-0.5 93.5,-0.5 93.76493,-30.93175 0.20613,-23.67669 -0.0158,-30.61188 -1,-31.24324 -0.69571,-0.44631 0.98507,-0.47702 3.73507,-0.0682 2.75,0.40877 8.375,0.74323 12.5,0.74323 4.125,0 9.75,-0.33446 12.5,-0.74323 2.75,-0.40878 4.43078,-0.37807 3.73507,0.0682 -0.98416,0.63136 -1.20613,7.56655 -1,31.24324 C 527.5,355.5 527.5,355.5 620.5,356 c 104.90943,0.56403 96.82777,-0.0682 108.48175,8.4866 12.47593,9.15818 17.19726,20.12224 17.79996,41.33577 0.41153,14.48466 0.55241,15.37462 2.57681,16.27821 1.89113,0.8441 1.84922,0.87739 -0.35852,0.28477 -9.96644,-2.67524 -29.13981,-1.10629 -40.70232,3.33066 C 707.58395,425.98989 707,425.9534 707,425.63492 Z"
     id="path179" />
  <path
     style="fill:#136ed7"
     d="M 339.13081,814.43945 C 324.97834,796.31872 295.98239,786.27579 276,792.57369 c -2.38149,0.75058 -2.41704,0.70487 -0.75,-0.96431 2.22915,-2.232 2.7629,-148.19648 0.55,-150.40938 -2.56338,-2.56338 -75.55546,-1.61513 -80.82474,1.05 -9.97343,5.04443 -16.96905,38.19112 -8.81694,41.77652 2.33438,1.02669 2.33389,1.02799 -0.15832,0.41822 -32.08189,-7.84943 -62.8422,8.14372 -74.66601,38.82095 -1.32158,3.42887 -2.14843,4.88431 -1.83745,3.23431 3.08182,-16.35177 29.22809,-42.5 42.49681,-42.5 3.3588,0 3.83453,-2.34414 4.17204,-20.55773 0.79965,-43.15205 13.41666,-51.79765 76.22823,-52.23417 50.7093,-0.35242 44.60996,3.42016 44.59107,-27.58054 -0.0153,-25.14737 -0.18684,-26.75573 -2.98469,-27.9887 -0.825,-0.36357 -0.375,-0.39411 1,-0.0679 6.78744,1.61046 23.67663,1.62748 29.91165,0.0301 3.51265,-0.8999 6.56549,-1.45735 6.78407,-1.23876 0.21858,0.21858 -0.85653,0.71214 -2.38913,1.0968 -4.23856,1.06381 -4.2749,1.30168 -4.29128,28.09081 -0.0191,31.18688 -5.68163,27.45 41.5956,27.45 48.60225,0 52.3657,0.82321 65.04267,14.22723 10.21772,10.80373 12.46991,17.63749 13.23709,40.16494 0.60933,17.89217 0.60933,17.89217 4.60933,19.08525 58.28966,17.38606 54.7859,105.98225 -4.74643,120.01857 -75.93325,17.90327 -108.12225,-94.34256 -34.26526,-119.48594 10.14758,-3.45457 6.86766,-37.13365 -4.14907,-42.60376 -4.70515,-2.33624 -77.27609,-3.53352 -79.9445,-1.31893 C 305.22481,642.05832 305,654.14115 305,716.05102 305,794.48238 304.91416,793 309.45563,793 c 6.49578,0 29.29976,16.88155 33.43287,24.75 1.8372,3.49759 0.94704,2.71335 -3.75769,-3.31055 z"
     id="path26" />
  <path
     style="fill:#136ed7"
     d="m 718,912.42392 c -54.90889,-14.42065 -62.52738,-91.08245 -11.46615,-115.37925 4.93138,-2.34653 9.64115,-4.60303 10.46615,-5.01445 1.94972,-0.97229 2.81437,-148.34404 0.884,-150.66999 -1.77568,-2.13957 -73.47128,-1.97734 -78.62952,0.17791 -9.63624,4.02628 -11.4351,8.50456 -11.05399,27.51902 C 628.5,683.99992 628.5,683.99992 625,683.24996 c -6.89535,-1.4775 -22.13251,-0.59502 -28.41408,1.64564 -3.25274,1.16027 -6.09336,1.93029 -6.3125,1.71116 -0.21913,-0.21914 1.5422,-1.04416 3.91408,-1.83339 4.3125,-1.43497 4.3125,-1.43497 4.94163,-19.35417 0.78398,-22.32965 3.02386,-29.32112 12.71366,-39.68398 C 625.08975,611.5681 627.5929,611 676.76845,611 c 47.99799,0 42.23531,3.74703 42.21624,-27.45 -0.0164,-26.78913 -0.0527,-27.027 -4.29128,-28.09081 -1.5326,-0.38466 -2.60771,-0.87822 -2.38913,-1.0968 0.21858,-0.21859 3.27419,0.33957 6.79024,1.24034 6.40363,1.64053 22.82861,1.55476 28.90548,-0.15095 2.26695,-0.63631 2.33524,-0.57355 0.73258,0.67325 -1.62331,1.26287 -1.74561,3.53552 -1.5,27.87497 0.26742,26.5 0.26742,26.5 43.26742,27 49.29585,0.57321 50.07507,0.73118 62.61981,12.69462 11.93189,11.37899 14.07067,17.26688 14.81284,40.77863 0.56462,17.88663 0.5794,17.9798 3.06735,19.33279 2.5,1.35955 2.5,1.35955 0,0.74991 -13.69931,-3.34065 -24.77766,-3.10078 -35.08274,0.75963 -10.3244,3.86765 -10.63932,3.95872 -7.91726,2.28959 1.375,-0.84313 4.67778,-2.27376 7.33951,-3.17917 4.83951,-1.64619 4.83951,-1.64619 4.5,-16.2861 C 839.20483,640.77194 838.68004,640.5 786.5,640.5 c -39,0 -39,0 -39,75.79476 0,75.79476 0,75.79476 6.95517,78.22508 C 826.073,819.54509 791.39553,931.6997 718,912.42392 Z"
     id="path6" />
  <path
     style="fill:#0f0f0f"
     d="M 500.16672,293.94569 C 444.88426,284.06512 414.47304,226.77674 438.81424,178.37043 471.82616,112.72102 565.21686,119.3237 589.16269,189 607.86147,243.4087 556.4713,304.00894 500.16672,293.94569 Z"
     id="path223" />
  <path
     style="fill:#0f0f0f"
     d="M 716,554.88276 C 662.04899,540.52523 647.01444,471.76094 690.09914,436.41868 735.69295,399.0182 803.37019,433.14444 800.75462,492.21669 798.83571,535.55512 757.69015,565.97742 716,554.88276 Z"
     id="path222" />
  <path
     style="fill:#0f0f0f"
     d="m 495.24136,554.9879 c -48.6916,-12.75855 -67.50338,-70.76009 -35.52414,-109.53002 38.86955,-47.12336 115.88417,-21.71901 119.98058,39.57727 3.02728,45.29838 -40.6099,81.44176 -84.45644,69.95275 z"
     id="path221" />
  <path
     style="fill:#0f0f0f"
     d="M 274,555.0071 C 208.46805,537.52713 205.53443,447.13794 269.77016,424.67923 321.00378,406.76644 372.0571,457.39817 355.52634,509.72727 344.76551,543.79134 308.16384,564.11995 274,555.0071 Z"
     id="path220" />
  <path
     style="fill:#0f0f0f"
     d="M 841.5,804.45932 C 793.51734,794.09795 776.45693,735.14516 811.40642,700.47 c 36.32094,-36.03585 95.72162,-15.64388 103.67078,35.58968 6.3378,40.84808 -32.77667,77.2101 -73.5772,68.39964 z"
     id="path219" />
  <path
     style="fill:#0f0f0f"
     d="M 601,804.51192 C 547.5284,792.47683 534.9713,721.82818 581.01439,692.06909 621.49673,665.9041 675,695.72294 675,744.44986 c 0,38.2498 -37.10511,68.36614 -74,60.06205 z"
     id="path218" />
  <path
     style="fill:#0f0f0f"
     d="m 156.5,804.41832 c -47.5153,-10.53801 -64.906587,-69.35783 -30.59076,-103.46234 35.1958,-34.97906 93.63727,-17.569 103.58769,30.8594 8.91047,43.36693 -30.05875,82.12582 -72.99693,72.60294 z"
     id="path217" />
  <path
     style="fill:#0f0f0f"
     d="M 276.24136,912.05522 C 229.68827,899.42532 214.18113,842.68289 248.08748,809.0369 286.97032,770.45264 352.64712,798.16516 352.27707,853 c -0.26527,39.30733 -38.72454,69.17779 -76.03571,59.05522 z"
     id="path2" />
</svg>
